<svg width="71" height="70" xmlns="http://www.w3.org/2000/svg" xmlns:xlink="http://www.w3.org/1999/xlink" xml:space="preserve" overflow="hidden"><g transform="translate(-378 -567)"><path d="M53.6667 25.7396C54.3958 24.4271 54.6146 22.8958 54.25 21.4375 55.5625 19.6146 55.8542 17.2083 54.6875 15.0938 54.3958 14.5833 54.1042 14.1458 53.6667 13.7812 54.6875 14.0729 55.4896 14.875 55.8542 16.0417 55.8542 16.1146 55.8542 16.1875 55.8542 16.2604 57.2396 16.3333 58.4062 17.2813 58.8438 18.5938 59.3542 20.3438 58.3333 22.1667 56.5833 22.6771 56.875 23.625 56.6562 24.5729 56.1458 25.375 55.3438 25.4479 53.9583 25.7396 53.6667 25.7396ZM48.8542 59.4271 44.6979 59.4271 47.1042 31.0625C49.875 30.7708 52.2812 30.4063 54.25 30.0417L48.8542 59.4271ZM41.7812 59.4271 36.4583 59.4271 36.4583 31.7188C39.2292 31.7188 41.7812 31.5729 44.1875 31.3542L41.7812 59.4271ZM34.8542 20.2708C35.5104 19.8333 36.3125 19.6875 37.1146 19.8333 37.1146 19.7604 37.1875 19.7604 37.1875 19.6875 38.0625 18.3021 39.8125 17.9375 41.1979 18.7396 42.5833 19.5417 42.9479 21.3646 42.1458 22.75 42.1458 22.8229 42.0729 22.8229 42.0729 22.8958 42.8021 23.8438 42.9479 25.1562 42.2917 26.25 42.0729 26.6146 41.7812 26.9063 41.4167 27.125 40.9792 27.125 38.0625 27.2708 35.8021 27.2708 36.2396 26.3958 36.5312 25.4479 36.5312 24.3542 36.4583 22.8229 35.875 21.3646 34.8542 20.2708ZM33.5417 59.4271 28.2188 59.4271 25.8125 31.3542C28.1458 31.5729 30.7708 31.6458 33.5417 31.7188L33.5417 59.4271ZM21.2188 59.4271 16.3333 30.1146C18.1562 30.4792 20.3438 30.7708 22.8958 31.0625L25.3021 59.4271 21.2188 59.4271ZM13.8542 23.6979C13.8542 22.0208 15.2396 20.6354 16.9167 20.6354 17.2813 20.6354 17.6458 20.7083 17.9375 20.8542 17.9375 20.7812 17.9375 20.7083 17.9375 20.6354 17.9375 18.9583 17.3542 17.5729 19.0312 17.5729 19.25 17.5729 19.3958 17.5729 19.5417 17.6458 19.5417 17.7188 19.6146 17.7917 19.6146 17.8646 19.7604 18.0833 19.8333 18.3021 19.9792 18.4479 19.9792 19.3229 20.2708 20.1979 20.6354 21.0729 19.9792 22.0938 19.5417 23.2604 19.5417 24.5729 19.5417 25.2292 19.6146 25.8125 19.8333 26.4688 17.5 26.1042 15.6042 25.7396 14.1458 25.4479 14 24.7917 13.8542 24.2812 13.8542 23.6979ZM23.625 11.8125C23.8438 11.6667 24.0625 11.5938 24.2812 11.5208 24.5 10.7188 25.0833 9.98958 25.8854 9.55208 27.5625 8.67708 29.6042 9.26042 30.4792 10.9375 30.5521 11.0833 30.625 11.3021 30.6979 11.4479 31.9375 11.375 33.25 12.0312 33.8333 13.1979 34.6354 14.6563 34.1979 16.4792 32.9583 17.4271 31.7917 15.9688 30.0417 15.0208 28.0729 15.0208 26.0313 15.0208 24.2083 16.0417 23.1146 17.5729 23.1146 17.5 23.1146 17.5 23.1146 17.4271 22.8229 17.1354 22.5312 16.8438 22.3125 16.4062 21.3646 14.7292 22.0208 12.6875 23.625 11.8125ZM31.8646 27.2708C28.8021 27.1979 26.0313 26.9792 23.625 26.7604 23.0417 26.1771 22.6771 25.375 22.6771 24.4271 22.6771 22.9688 23.625 21.8021 24.8646 21.3646 24.8646 21.2917 24.8646 21.2188 24.8646 21.1458 24.8646 19.3229 26.3229 17.8646 28.1458 17.8646 29.9688 17.8646 31.4271 19.3229 31.4271 21.1458 31.4271 21.2188 31.4271 21.2917 31.4271 21.3646 32.7396 21.8021 33.6146 23.0417 33.6146 24.4271 33.5417 25.6667 32.8125 26.7604 31.8646 27.2708ZM37.3333 11.8125C37.6979 11.8125 38.0625 11.8854 38.3542 12.0312 38.3542 11.9583 38.3542 11.8854 38.3542 11.8125 38.3542 10.1354 39.7396 8.75 41.4167 8.75 43.0938 8.75 44.4792 10.1354 44.4792 11.8125 44.4792 11.8854 44.4792 11.9583 44.4792 12.0312 44.4792 12.0312 44.4792 12.0312 44.4063 12.0312 43.4583 12.0312 42.4375 12.25 41.6354 12.7604 40.5417 13.3438 39.6667 14.2917 39.0833 15.4583 38.3542 15.5312 37.625 15.75 36.8958 16.0417 37.1875 14.6563 36.9688 13.2708 36.3854 12.0312 36.8229 11.8854 37.1146 11.8125 37.3333 11.8125ZM47.0312 16.3333C47.3229 15.8958 47.6146 15.6042 48.125 15.3125 49.5833 14.5104 51.4062 15.0938 52.1354 16.4792 52.9375 17.9375 52.3542 19.7604 50.9688 20.4896 50.8229 20.5625 50.6771 20.6354 50.6042 20.6354 50.8229 20.8542 51.0417 21.0729 51.1875 21.3646 51.9896 22.8229 51.4062 24.6458 50.0208 25.375 48.8542 25.9583 47.5417 25.8125 46.5938 24.9375 46.4479 25.0833 46.2292 25.2292 46.0104 25.375 45.8646 25.4479 45.7188 25.5208 45.5 25.5938 45.6458 24.6458 45.5729 23.625 45.2812 22.6771 46.0104 20.2708 44.9896 17.5 42.8021 16.1146 42.6562 16.0417 42.5104 15.9688 42.2917 15.8958 42.5104 15.6042 42.8021 15.3854 43.1667 15.1667 44.4792 14.5833 46.1562 15.0208 47.0312 16.3333ZM61.6875 17.7917C61.1771 15.8958 59.7917 14.4375 58.0417 13.7812 56.6562 11.4479 53.8125 10.2083 51.0417 11.0104 50.2396 11.2292 49.5104 11.6667 48.8542 12.1771 48.6354 12.1771 48.4167 12.25 48.2708 12.25 48.0521 11.9583 47.8333 11.7396 47.5417 11.5208 47.3229 8.3125 44.6979 5.83333 41.4896 5.83333 39.1562 5.83333 37.1875 7.14583 36.1667 9.04167 35.5833 9.1875 35.0729 9.33333 34.5625 9.625 33.9792 9.1875 33.25 8.82292 32.5208 8.67708 31.3542 7.14583 29.5312 6.19792 27.4896 6.19792 26.4688 6.19792 25.375 6.48958 24.5 6.92708 23.4792 7.51042 22.6042 8.3125 22.0938 9.26042 20.1979 10.3542 19.0312 12.3958 18.9583 14.5104 16.6979 14.5833 15.75 15.75 15.75 17.7188 12.9792 18.3021 10.9375 20.7083 10.9375 23.625 10.9375 23.9167 10.9375 24.3542 10.9375 24.3542L17.5 63.7292 52.5 63.7292 59.7917 24.3542 59.5729 24.2083C61.4688 22.75 62.3438 20.1979 61.6875 17.7917Z" fill="#5AFFF5" transform="matrix(1.01429 0 0 1 378 567)"/></g></svg>